# xmcd
#
# Track frame offsets: 
#        150
#        14250
#        30775
#        49350
#        62162
#        78037
#        91500
#        104395
#        119962
#        143687
#        161650
#        178862
#        197537
#        217975
#        227212
#        244487
#        255587
#        268125
#        287087
#        301675
#
# Disc length: 4165 seconds
#
# Revision: 2
# Processed by: cddbd v1.5.1PL0 Copyright (c) Steve Scherf et al.
# Submitted via: ExactAudioCopy v0.95a5
#
DISCID=13104314
DTITLE=Various Artist - Sympophony #1: A Collection Of American Power Pop
DYEAR=1995
DGENRE=Power Pop
TTITLE0=Martin Luther Lennon - I Own The World
TTITLE1=Martin Luther Lennon - No Love Lost
TTITLE2=Martin Luther Lennon - Disconnected
TTITLE3=Martin Luther Lennon - Dancing With Myself
TTITLE4=Rockerfellers - Just Like It Was Before
TTITLE5=Rockerfellers - I Love You Better
TTITLE6=Rockerfellers - All Your Former Boyfriends
TTITLE7=Rockerfellers - She's Never Wrong
TTITLE8=Cherry Twister - Leila
TTITLE9=Cherry Twister - Rose garden
TTITLE10=Cherry Twister - Charlotte B.
TTITLE11=Cherry Twister - Frozen Teeth
TTITLE12=The Finns - Whatever You Want
TTITLE13=The Finns - Sattelite Receiver
TTITLE14=The Finns - Dreams Of Mediocrity
TTITLE15=The Finns - Superstar Suicide
TTITLE16=The Shambles - Medley: Heart And Soul/For Jamie
TTITLE17=The Shambles - I Believe
TTITLE18=The Shambles - The Color Swirl
TTITLE19=The Shambles - Original Tangent
EXTD=
EXTT0=
EXTT1=
EXTT2=
EXTT3=
EXTT4=
EXTT5=
EXTT6=
EXTT7=
EXTT8=
EXTT9=
EXTT10=
EXTT11=
EXTT12=
EXTT13=
EXTT14=
EXTT15=
EXTT16=
EXTT17=
EXTT18=
EXTT19=
PLAYORDER=
